<svg width="50" height="49" viewBox="0 0 50 49" fill="none" xmlns="http://www.w3.org/2000/svg">
<path d="M48 24.5C48 36.8885 37.7408 47 25 47C12.2592 47 2 36.8885 2 24.5C2 12.1115 12.2592 2 25 2C37.7408 2 48 12.1115 48 24.5Z" stroke="#C4C5C5" stroke-width="4"/>
<mask id="path-2-inside-1_137_98" fill="white">
<path d="M50 24.5C50 30.3894 47.8352 36.0817 43.9021 40.5346C39.969 44.9875 34.5308 47.9029 28.5833 48.747C22.6358 49.5912 16.577 48.3075 11.5164 45.1311C6.45583 41.9547 2.73213 37.0981 1.0272 31.4507L4.67193 30.394C6.11766 35.1828 9.27521 39.3009 13.5664 41.9944C17.8576 44.6879 22.9952 45.7764 28.0385 45.0606C33.0818 44.3448 37.6932 41.8726 41.0283 38.0967C44.3635 34.3209 46.1991 29.494 46.1991 24.5H50Z"/>
</mask>
<path d="M50 24.5C50 30.3894 47.8352 36.0817 43.9021 40.5346C39.969 44.9875 34.5308 47.9029 28.5833 48.747C22.6358 49.5912 16.577 48.3075 11.5164 45.1311C6.45583 41.9547 2.73213 37.0981 1.0272 31.4507L4.67193 30.394C6.11766 35.1828 9.27521 39.3009 13.5664 41.9944C17.8576 44.6879 22.9952 45.7764 28.0385 45.0606C33.0818 44.3448 37.6932 41.8726 41.0283 38.0967C44.3635 34.3209 46.1991 29.494 46.1991 24.5H50Z" stroke="#5453E0" stroke-width="8" mask="url(#path-2-inside-1_137_98)"/>
</svg>
